<?xml version="1.0" encoding="UTF-8"?>
<svg version="1.1" xmlns="http://www.w3.org/2000/svg" width="435" height="311">
<path d="M0 0 C2.82780821 2.56370767 3.89318257 4.51232085 4.30078125 8.39453125 C4.32527344 9.23371094 4.34976563 10.07289062 4.375 10.9375 C4.43107422 12.18466797 4.43107422 12.18466797 4.48828125 13.45703125 C3.35089026 20.58398583 -3.31197828 25.76063388 -8.203125 30.5859375 C-8.99652283 31.37650543 -9.78992065 32.16707336 -10.60736084 32.9815979 C-13.12939761 35.49248676 -15.65831739 37.99631124 -18.1875 40.5 C-19.90410562 42.20656888 -21.62025659 43.91359522 -23.3359375 45.62109375 C-27.5312074 49.79437477 -31.73214244 53.96188568 -35.9375 58.125 C-33.59611931 61.71917139 -31.58453297 64.73286325 -28.1875 67.375 C-26.328125 68.828125 -26.328125 68.828125 -24.9375 70.125 C-24.9375 70.785 -24.9375 71.445 -24.9375 72.125 C-24.2775 72.125 -23.6175 72.125 -22.9375 72.125 C-21.56439293 73.41733607 -20.22715176 74.74937146 -18.9375 76.125 C-18.53919605 75.72485247 -18.14089211 75.32470493 -17.73051834 74.91243172 C-8.03774291 65.17548409 1.66063083 55.44414357 11.36506271 45.71881294 C16.05788915 41.01554083 20.74882561 36.31043073 25.43554688 31.60107422 C29.95692706 27.05799383 34.48314811 22.51978917 39.01279449 17.98495102 C40.74173225 16.25231245 42.46890616 14.51791198 44.19429779 12.7817421 C46.60766025 10.35390251 49.02716776 7.93235275 51.44824219 5.51220703 C52.16321869 4.79003998 52.87819519 4.06787292 53.61483765 3.32382202 C54.27664032 2.66476868 54.93844299 2.00571533 55.62030029 1.32669067 C56.47756777 0.46665782 56.47756777 0.46665782 57.35215378 -0.41074944 C59.80734779 -2.51267428 61.95758614 -3.81473197 65.2109375 -3.9921875 C70.46017437 -3.42121788 73.93472727 -2.41309091 78.0625 1.125 C81.02643808 4.90657618 81.89456496 8.33885122 82.0625 13.125 C79.98935795 18.41082101 76.80453019 21.79622671 72.83447266 25.69360352 C72.20808395 26.3204303 71.58169525 26.94725708 70.93632507 27.59307861 C68.87343852 29.65388324 66.80014112 31.70386503 64.7265625 33.75390625 C63.28485661 35.1900108 61.84381617 36.62678369 60.40341187 38.06419373 C56.61434221 41.8418298 52.81635748 45.61037703 49.01641846 49.3770752 C45.1592067 53.20365732 41.31040802 57.03868006 37.4609375 60.87304688 C31.23837538 67.0692682 25.01072541 73.26031932 18.77626038 79.44456482 C13.85361407 84.32836914 8.95198795 89.23159825 4.0859375 94.171875 C2.68357153 95.58802828 1.28119039 97.0041669 -0.12207031 98.41943359 C-1.08771055 99.39522123 -2.0515613 100.37278278 -3.01367188 101.35205078 C-4.41323573 102.7758269 -5.81980267 104.19270841 -7.2265625 105.609375 C-8.47493896 106.87346191 -8.47493896 106.87346191 -9.74853516 108.16308594 C-13.59530796 111.61085153 -17.50273517 111.46689736 -22.4375 111.40234375 C-28.88467306 110.68711049 -32.09762613 105.82884549 -35.9375 101.125 C-36.906875 100.320625 -37.87625 99.51625 -38.875 98.6875 C-41.24863489 96.70139734 -42.99633746 94.9716273 -44.9375 92.625 C-47.66932614 89.32821504 -50.60357887 86.80663221 -53.9375 84.125 C-55.28162902 82.80255048 -56.61697945 81.47102416 -57.9375 80.125 C-59.20025757 81.41917847 -59.20025757 81.41917847 -60.48852539 82.73950195 C-63.62971465 85.95336968 -66.78435167 89.15375326 -69.94311523 92.3503418 C-71.30551656 93.73279509 -72.66429839 95.1188255 -74.01928711 96.50854492 C-75.97337552 98.51143173 -77.94034048 100.50087463 -79.91015625 102.48828125 C-80.50836685 103.10713699 -81.10657745 103.72599274 -81.72291565 104.36360168 C-86.58764522 109.23086499 -90.76661895 112.02433711 -97.875 112.25 C-101.28343821 111.64519461 -103.12554267 110.36913626 -105.66625977 108.05395508 C-106.36324982 107.42172028 -107.06023987 106.78948547 -107.77835083 106.13809204 C-108.49087006 105.47377167 -109.20338928 104.80945129 -109.9375 104.125 C-110.61432831 103.49427582 -111.29115662 102.86355164 -111.98849487 102.2137146 C-116.52853797 97.93145299 -120.98766409 93.56607092 -125.43969727 89.19262695 C-127.06698239 87.60221064 -128.70314058 86.0208241 -130.34790039 84.44848633 C-132.74221249 82.15768369 -135.10564347 79.83860057 -137.46484375 77.51171875 C-138.2001683 76.81970871 -138.93549286 76.12769867 -139.69309998 75.41471863 C-144.17753634 70.91335064 -145.78801682 67.68559725 -146.04249573 61.29841614 C-145.82995195 56.89875077 -144.7852535 54.90582559 -141.5625 51.9375 C-137.21857692 48.93812454 -134.64201643 47.90953477 -129.23046875 47.6640625 C-123.09780573 48.89686358 -118.44500619 53.18451917 -114.22265625 57.546875 C-113.72205185 58.05172424 -113.22144745 58.55657349 -112.70567322 59.07672119 C-111.12984154 60.669162 -109.56484839 62.27177264 -108 63.875 C-106.92453175 64.9655381 -105.84836569 66.0553885 -104.77148438 67.14453125 C-102.15205243 69.7967959 -99.54222457 72.45828089 -96.9375 75.125 C-92.95669934 73.52321611 -90.2885829 70.74478084 -87.33032227 67.74487305 C-86.50756302 66.92255188 -86.50756302 66.92255188 -85.66818237 66.08361816 C-83.85864174 64.27268603 -82.0562897 62.45477209 -80.25390625 60.63671875 C-78.99408522 59.37316446 -77.73381958 58.11005332 -76.47312927 56.84736633 C-73.15473072 53.52133532 -69.84237581 50.18934824 -66.53125 46.8560791 C-63.17220781 43.4766485 -59.80757008 40.10279964 -56.44335938 36.72851562 C-51.00259003 31.27018055 -45.56521799 25.80848924 -40.13246155 20.34217834 C-37.83427215 18.03017054 -35.53255952 15.7221298 -33.22154236 13.42292786 C-30.07111865 10.25335161 -27.16101017 6.8891868 -24.21875 3.52734375 C-17.25264 -3.80854264 -8.53899007 -7.06614579 0 0 Z " fill="#000000" transform="translate(248.9375,94.875)"/>
<path d="" fill="#FFFFFF" transform="translate(0,0)"/>
<path d="" fill="#FFFFFF" transform="translate(0,0)"/>
<path d="" fill="#FFFFFF" transform="translate(0,0)"/>
<path d="" fill="#FFFFFF" transform="translate(0,0)"/>
<path d="" fill="#FFFFFF" transform="translate(0,0)"/>
<path d="" fill="#FFFFFF" transform="translate(0,0)"/>
<path d="" fill="#FFFFFF" transform="translate(0,0)"/>
<path d="" fill="#FFFFFF" transform="translate(0,0)"/>
<path d="" fill="#FFFFFF" transform="translate(0,0)"/>
<path d="" fill="#FFFFFF" transform="translate(0,0)"/>
<path d="" fill="#FFFFFF" transform="translate(0,0)"/>
<path d="" fill="#FFFFFF" transform="translate(0,0)"/>
<path d="" fill="#FFFFFF" transform="translate(0,0)"/>
<path d="" fill="#FFFFFF" transform="translate(0,0)"/>
<path d="" fill="#FFFFFF" transform="translate(0,0)"/>
<path d="" fill="#FFFFFF" transform="translate(0,0)"/>
<path d="" fill="#FFFFFF" transform="translate(0,0)"/>
<path d="" fill="#FFFFFF" transform="translate(0,0)"/>
<path d="" fill="#FFFFFF" transform="translate(0,0)"/>
<path d="" fill="#FFFFFF" transform="translate(0,0)"/>
<path d="" fill="#FFFFFF" transform="translate(0,0)"/>
<path d="" fill="#FFFFFF" transform="translate(0,0)"/>
<path d="" fill="#FFFFFF" transform="translate(0,0)"/>
<path d="" fill="#FFFFFF" transform="translate(0,0)"/>
<path d="" fill="#FFFFFF" transform="translate(0,0)"/>
<path d="" fill="#FFFFFF" transform="translate(0,0)"/>
<path d="" fill="#FFFFFF" transform="translate(0,0)"/>
<path d="" fill="#FFFFFF" transform="translate(0,0)"/>
<path d="" fill="#FFFFFF" transform="translate(0,0)"/>
<path d="" fill="#FFFFFF" transform="translate(0,0)"/>
<path d="" fill="#FFFFFF" transform="translate(0,0)"/>
<path d="" fill="#FFFFFF" transform="translate(0,0)"/>
<path d="" fill="#FFFFFF" transform="translate(0,0)"/>
<path d="" fill="#FFFFFF" transform="translate(0,0)"/>
<path d="" fill="#FFFFFF" transform="translate(0,0)"/>
<path d="" fill="#FFFFFF" transform="translate(0,0)"/>
<path d="" fill="#FFFFFF" transform="translate(0,0)"/>
<path d="" fill="#FFFFFF" transform="translate(0,0)"/>
<path d="" fill="#FFFFFF" transform="translate(0,0)"/>
<path d="" fill="#FFFFFF" transform="translate(0,0)"/>
<path d="" fill="#FFFFFF" transform="translate(0,0)"/>
<path d="" fill="#FFFFFF" transform="translate(0,0)"/>
<path d="" fill="#FFFFFF" transform="translate(0,0)"/>
<path d="" fill="#FFFFFF" transform="translate(0,0)"/>
<path d="" fill="#FFFFFF" transform="translate(0,0)"/>
<path d="" fill="#FFFFFF" transform="translate(0,0)"/>
<path d="" fill="#FFFFFF" transform="translate(0,0)"/>
<path d="" fill="#FFFFFF" transform="translate(0,0)"/>
<path d="" fill="#FFFFFF" transform="translate(0,0)"/>
<path d="" fill="#FFFFFF" transform="translate(0,0)"/>
<path d="" fill="#FFFFFF" transform="translate(0,0)"/>
<path d="" fill="#FFFFFF" transform="translate(0,0)"/>
<path d="" fill="#FFFFFF" transform="translate(0,0)"/>
<path d="" fill="#FFFFFF" transform="translate(0,0)"/>
<path d="" fill="#FFFFFF" transform="translate(0,0)"/>
<path d="" fill="#FFFFFF" transform="translate(0,0)"/>
<path d="" fill="#FFFFFF" transform="translate(0,0)"/>
<path d="" fill="#FFFFFF" transform="translate(0,0)"/>
<path d="" fill="#FFFFFF" transform="translate(0,0)"/>
<path d="" fill="#FFFFFF" transform="translate(0,0)"/>
<path d="" fill="#FFFFFF" transform="translate(0,0)"/>
<path d="" fill="#FFFFFF" transform="translate(0,0)"/>
<path d="" fill="#FFFFFF" transform="translate(0,0)"/>
<path d="" fill="#FFFFFF" transform="translate(0,0)"/>
<path d="" fill="#FFFFFF" transform="translate(0,0)"/>
<path d="" fill="#FFFFFF" transform="translate(0,0)"/>
<path d="" fill="#FFFFFF" transform="translate(0,0)"/>
<path d="" fill="#FFFFFF" transform="translate(0,0)"/>
<path d="" fill="#FFFFFF" transform="translate(0,0)"/>
<path d="" fill="#FFFFFF" transform="translate(0,0)"/>
<path d="" fill="#FFFFFF" transform="translate(0,0)"/>
<path d="" fill="#FFFFFF" transform="translate(0,0)"/>
<path d="" fill="#FFFFFF" transform="translate(0,0)"/>
<path d="" fill="#FFFFFF" transform="translate(0,0)"/>
<path d="" fill="#FFFFFF" transform="translate(0,0)"/>
<path d="" fill="#FFFFFF" transform="translate(0,0)"/>
<path d="" fill="#FFFFFF" transform="translate(0,0)"/>
<path d="" fill="#FFFFFF" transform="translate(0,0)"/>
<path d="" fill="#FFFFFF" transform="translate(0,0)"/>
<path d="" fill="#FFFFFF" transform="translate(0,0)"/>
<path d="" fill="#FFFFFF" transform="translate(0,0)"/>
<path d="" fill="#FFFFFF" transform="translate(0,0)"/>
<path d="" fill="#FFFFFF" transform="translate(0,0)"/>
<path d="" fill="#FFFFFF" transform="translate(0,0)"/>
</svg>
